<svg width="387" height="207" viewBox="0 0 387 207" fill="none" xmlns="http://www.w3.org/2000/svg">
<mask id="mask0_93_127" style="mask-type:alpha" maskUnits="userSpaceOnUse" x="137" y="0" width="206" height="206">
<rect x="206.527" width="153" height="153" transform="rotate(27.0278 206.527 0)" fill="#D9D9D9"/>
</mask>
<g mask="url(#mask0_93_127)">
<path d="M179.763 136.636L204.822 87.5144C200.576 83.6786 197.858 78.9524 196.668 73.3357C195.478 67.7189 196.235 62.2605 198.939 56.9603C201.498 51.9441 205.21 48.232 210.077 45.8241C214.943 43.4162 220.034 42.6139 225.349 43.4171C229.844 39.9846 234.969 37.9471 240.723 37.3046C246.478 36.662 252.053 37.7168 257.448 40.4689C260.761 42.1588 263.571 44.3079 265.878 46.9163C268.185 49.5246 270.039 52.3788 271.44 55.4788C272.483 55.7723 273.466 56.0654 274.39 56.3579C275.315 56.6505 276.297 57.0624 277.338 57.5935C283.585 60.7801 287.798 65.7322 289.977 72.4499C292.156 79.1675 291.652 85.6496 288.466 91.8963C287.404 93.9785 286.129 95.8333 284.643 97.4607C283.157 99.088 281.459 100.488 279.549 101.66L288.351 106.151C291.474 107.744 293.58 110.22 294.67 113.579C295.759 116.938 295.508 120.179 293.914 123.302L276.533 157.375C274.939 160.498 272.463 162.604 269.104 163.694C265.746 164.784 262.505 164.532 259.381 162.938L248.024 157.144L242.23 168.502L179.763 136.636ZM210.296 62.7542C208.703 65.8775 208.451 69.1186 209.541 72.4774C210.63 75.8362 212.737 78.3123 215.86 79.9056C218.889 81.4506 221.975 81.7725 225.118 80.8713C228.262 79.9701 231.597 78.8685 235.124 77.5665C238.794 76.2181 242.662 75.2396 246.73 74.6309C250.798 74.0223 255.245 74.9492 260.072 77.4116L277.108 86.1024C278.702 82.9791 278.953 79.738 277.864 76.3792C276.774 73.0204 274.668 70.5443 271.545 68.951C269.178 67.7439 267.034 67.0376 265.111 66.832L262.227 66.5236L259.709 60.5873C259.102 59.2044 258.176 57.6882 256.93 56.0387C255.684 54.3893 253.926 52.9852 251.654 51.8264C248.625 50.2814 245.447 49.6736 242.118 50.0031C238.789 50.3326 235.762 51.5318 233.036 53.6005L228.876 56.8457L223.536 56.0898C220.784 55.6399 218.203 56.023 215.794 57.239C213.384 58.455 211.552 60.2934 210.296 62.7542ZM253.818 145.787L265.175 151.581L282.557 117.508L271.199 111.714L253.818 145.787Z" fill="#FFB800"/>
</g>
<path d="M0.52 206L14.38 161.3H27.22L41.08 206H29.8L24.22 183.68C23.62 181.44 23.02 179.06 22.42 176.54C21.86 174.02 21.28 171.62 20.68 169.34H20.44C19.92 171.66 19.36 174.08 18.76 176.6C18.16 179.08 17.58 181.44 17.02 183.68L11.44 206H0.52ZM9.94 195.74V187.46H31.54V195.74H9.94ZM54.6494 206.84C52.2094 206.84 50.2694 206.34 48.8294 205.34C47.4294 204.34 46.4294 202.94 45.8294 201.14C45.2294 199.34 44.9294 197.26 44.9294 194.9V158.06H55.6094V195.26C55.6094 196.38 55.8094 197.16 56.2094 197.6C56.6494 198 57.0694 198.2 57.4694 198.2C57.6694 198.2 57.8494 198.2 58.0094 198.2C58.1694 198.16 58.3894 198.12 58.6694 198.08L59.9294 205.94C59.3694 206.18 58.6494 206.38 57.7694 206.54C56.8894 206.74 55.8494 206.84 54.6494 206.84ZM79.9113 206.84C76.7113 206.84 73.8313 206.14 71.2713 204.74C68.7113 203.3 66.6713 201.24 65.1513 198.56C63.6713 195.88 62.9313 192.66 62.9313 188.9C62.9313 185.14 63.7513 181.94 65.3913 179.3C67.0713 176.62 69.2713 174.58 71.9913 173.18C74.7513 171.74 77.7113 171.02 80.8713 171.02C82.9513 171.02 84.8113 171.36 86.4513 172.04C88.0913 172.68 89.5513 173.56 90.8312 174.68L85.8513 181.46C85.0913 180.82 84.3513 180.36 83.6313 180.08C82.9513 179.8 82.2513 179.66 81.5313 179.66C79.9713 179.66 78.6113 180.04 77.4513 180.8C76.2913 181.56 75.3913 182.64 74.7513 184.04C74.1513 185.4 73.8513 187.02 73.8513 188.9C73.8513 190.78 74.1713 192.42 74.8113 193.82C75.4513 195.22 76.3113 196.3 77.3913 197.06C78.5113 197.82 79.7513 198.2 81.1113 198.2C82.1913 198.2 83.2313 197.98 84.2313 197.54C85.2313 197.06 86.1713 196.48 87.0513 195.8L91.1913 202.82C89.5113 204.3 87.6513 205.34 85.6113 205.94C83.6113 206.54 81.7113 206.84 79.9113 206.84ZM109.495 206.84C106.615 206.84 103.895 206.14 101.335 204.74C98.7755 203.3 96.6955 201.24 95.0955 198.56C93.5355 195.88 92.7555 192.66 92.7555 188.9C92.7555 185.14 93.5355 181.94 95.0955 179.3C96.6955 176.62 98.7755 174.58 101.335 173.18C103.895 171.74 106.615 171.02 109.495 171.02C111.655 171.02 113.735 171.42 115.735 172.22C117.735 173.02 119.515 174.2 121.075 175.76C122.635 177.28 123.875 179.14 124.795 181.34C125.715 183.54 126.175 186.06 126.175 188.9C126.175 192.66 125.375 195.88 123.775 198.56C122.215 201.24 120.155 203.3 117.595 204.74C115.075 206.14 112.375 206.84 109.495 206.84ZM109.495 198.2C110.815 198.2 111.895 197.82 112.735 197.06C113.615 196.3 114.255 195.22 114.655 193.82C115.055 192.42 115.255 190.78 115.255 188.9C115.255 187.02 115.055 185.4 114.655 184.04C114.255 182.64 113.615 181.56 112.735 180.8C111.895 180.04 110.815 179.66 109.495 179.66C108.175 179.66 107.075 180.04 106.195 180.8C105.355 181.56 104.715 182.64 104.275 184.04C103.875 185.4 103.675 187.02 103.675 188.9C103.675 190.78 103.875 192.42 104.275 193.82C104.715 195.22 105.355 196.3 106.195 197.06C107.075 197.82 108.175 198.2 109.495 198.2ZM132.879 206V158.06H143.559V169.58L143.019 175.64C144.259 174.48 145.719 173.42 147.399 172.46C149.119 171.5 151.139 171.02 153.459 171.02C157.179 171.02 159.879 172.26 161.559 174.74C163.239 177.22 164.079 180.6 164.079 184.88V206H153.399V186.2C153.399 183.84 153.079 182.24 152.439 181.4C151.799 180.56 150.799 180.14 149.439 180.14C148.239 180.14 147.219 180.4 146.379 180.92C145.539 181.44 144.599 182.2 143.559 183.2V206H132.879ZM187.191 206.84C184.311 206.84 181.591 206.14 179.031 204.74C176.471 203.3 174.391 201.24 172.791 198.56C171.231 195.88 170.451 192.66 170.451 188.9C170.451 185.14 171.231 181.94 172.791 179.3C174.391 176.62 176.471 174.58 179.031 173.18C181.591 171.74 184.311 171.02 187.191 171.02C189.351 171.02 191.431 171.42 193.431 172.22C195.431 173.02 197.211 174.2 198.771 175.76C200.331 177.28 201.571 179.14 202.491 181.34C203.411 183.54 203.871 186.06 203.871 188.9C203.871 192.66 203.071 195.88 201.471 198.56C199.911 201.24 197.851 203.3 195.291 204.74C192.771 206.14 190.071 206.84 187.191 206.84ZM187.191 198.2C188.511 198.2 189.591 197.82 190.431 197.06C191.311 196.3 191.951 195.22 192.351 193.82C192.751 192.42 192.951 190.78 192.951 188.9C192.951 187.02 192.751 185.4 192.351 184.04C191.951 182.64 191.311 181.56 190.431 180.8C189.591 180.04 188.511 179.66 187.191 179.66C185.871 179.66 184.771 180.04 183.891 180.8C183.051 181.56 182.411 182.64 181.971 184.04C181.571 185.4 181.371 187.02 181.371 188.9C181.371 190.78 181.571 192.42 181.971 193.82C182.411 195.22 183.051 196.3 183.891 197.06C184.771 197.82 185.871 198.2 187.191 198.2ZM220.294 206.84C217.854 206.84 215.914 206.34 214.474 205.34C213.074 204.34 212.074 202.94 211.474 201.14C210.874 199.34 210.574 197.26 210.574 194.9V158.06H221.254V195.26C221.254 196.38 221.454 197.16 221.854 197.6C222.294 198 222.714 198.2 223.114 198.2C223.314 198.2 223.494 198.2 223.654 198.2C223.814 198.16 224.034 198.12 224.314 198.08L225.574 205.94C225.014 206.18 224.294 206.38 223.414 206.54C222.534 206.74 221.494 206.84 220.294 206.84ZM263.947 206.84C261.107 206.84 258.427 206.36 255.907 205.4C253.387 204.44 251.147 203 249.187 201.08C247.267 199.12 245.747 196.72 244.627 193.88C243.547 191 243.007 187.68 243.007 183.92C243.007 180.2 243.567 176.9 244.687 174.02C245.847 171.1 247.407 168.64 249.367 166.64C251.367 164.64 253.647 163.12 256.207 162.08C258.767 161.04 261.467 160.52 264.307 160.52C267.227 160.52 269.827 161.1 272.107 162.26C274.427 163.42 276.347 164.78 277.867 166.34L272.287 173.18C271.167 172.14 269.987 171.3 268.747 170.66C267.507 170.02 266.087 169.7 264.487 169.7C262.567 169.7 260.807 170.26 259.207 171.38C257.607 172.46 256.327 174.04 255.367 176.12C254.447 178.16 253.987 180.64 253.987 183.56C253.987 186.52 254.407 189.06 255.247 191.18C256.127 193.26 257.347 194.86 258.907 195.98C260.467 197.06 262.287 197.6 264.367 197.6C266.167 197.6 267.767 197.2 269.167 196.4C270.607 195.6 271.847 194.64 272.887 193.52L278.527 200.24C276.647 202.44 274.467 204.1 271.987 205.22C269.547 206.3 266.867 206.84 263.947 206.84ZM284.226 206V158.06H294.906V169.58L294.366 175.64C295.606 174.48 297.066 173.42 298.746 172.46C300.466 171.5 302.486 171.02 304.806 171.02C308.526 171.02 311.226 172.26 312.906 174.74C314.586 177.22 315.426 180.6 315.426 184.88V206H304.746V186.2C304.746 183.84 304.426 182.24 303.786 181.4C303.146 180.56 302.146 180.14 300.786 180.14C299.586 180.14 298.566 180.4 297.726 180.92C296.886 181.44 295.946 182.2 294.906 183.2V206H284.226ZM332.358 206.84C330.278 206.84 328.478 206.38 326.958 205.46C325.438 204.5 324.258 203.24 323.418 201.68C322.618 200.08 322.218 198.34 322.218 196.46C322.218 192.86 323.718 190.06 326.718 188.06C329.718 186.02 334.538 184.64 341.178 183.92C341.098 183 340.878 182.22 340.518 181.58C340.158 180.9 339.598 180.4 338.838 180.08C338.118 179.72 337.178 179.54 336.018 179.54C334.658 179.54 333.258 179.8 331.818 180.32C330.378 180.84 328.798 181.58 327.078 182.54L323.358 175.52C324.878 174.6 326.418 173.82 327.978 173.18C329.578 172.5 331.218 171.98 332.898 171.62C334.578 171.22 336.298 171.02 338.058 171.02C341.018 171.02 343.518 171.58 345.558 172.7C347.598 173.82 349.158 175.54 350.238 177.86C351.318 180.14 351.858 183.06 351.858 186.62V206H343.158L342.438 202.58H342.138C340.738 203.82 339.218 204.84 337.578 205.64C335.978 206.44 334.238 206.84 332.358 206.84ZM336.018 198.56C337.098 198.56 338.038 198.32 338.838 197.84C339.638 197.36 340.418 196.7 341.178 195.86V190.4C338.978 190.68 337.218 191.08 335.898 191.6C334.618 192.12 333.698 192.72 333.138 193.4C332.618 194.08 332.358 194.82 332.358 195.62C332.358 196.62 332.678 197.36 333.318 197.84C333.998 198.32 334.898 198.56 336.018 198.56ZM371.846 206.84C369.006 206.84 366.686 206.28 364.886 205.16C363.126 204 361.826 202.42 360.986 200.42C360.186 198.38 359.786 196.02 359.786 193.34V180.2H355.166V172.28L360.446 171.86L361.646 162.8H370.466V171.86H378.506V180.2H370.466V193.22C370.466 195.1 370.866 196.46 371.666 197.3C372.506 198.1 373.546 198.5 374.786 198.5C375.346 198.5 375.906 198.44 376.466 198.32C377.026 198.16 377.506 198 377.906 197.84L379.586 205.58C378.706 205.86 377.626 206.14 376.346 206.42C375.106 206.7 373.606 206.84 371.846 206.84Z" fill="black"/>
</svg>
